REM DIRINDEX 1\5,1\2\6,1\2\7,1\3\8,1\3\9,1\4\10,1\4\11,1\4\12
REM DIRNAME cjc026,folder01,folder02,folder03,folder04,folder05,folder06,folder07,folder08,folder09,folder10,folder11
TITLE ""
FILE "EJ_DB3000_5th_4B_44.mp3" MP3
  TRACK 01 AUDIO
    TITLE "0:"
    INDEX 01 00:00:00
  TRACK 02 AUDIO
    TITLE "9:cjc026_05425"
    INDEX 01 00:00:08
  TRACK 03 AUDIO
    TITLE "0:"
    INDEX 01 00:01:19
  TRACK 04 AUDIO
    TITLE "8:cjc026_05426"
    INDEX 01 00:01:57
  TRACK 05 AUDIO
    TITLE "0:"
    INDEX 01 00:03:28
  TRACK 06 AUDIO
    TITLE "9:cjc026_05427"
    INDEX 01 00:03:63
  TRACK 07 AUDIO
    TITLE "0:"
    INDEX 01 00:05:11
  TRACK 08 AUDIO
    TITLE "8:cjc026_05428"
    INDEX 01 00:05:46
  TRACK 09 AUDIO
    TITLE "0:"
    INDEX 01 00:07:15
  TRACK 10 AUDIO
    TITLE "9:cjc026_05429"
    INDEX 01 00:07:50
  TRACK 11 AUDIO
    TITLE "0:"
    INDEX 01 00:08:69
  TRACK 12 AUDIO
    TITLE "8:cjc026_05430"
    INDEX 01 00:09:32
  TRACK 13 AUDIO
    TITLE "0:"
    INDEX 01 00:11:03
  TRACK 14 AUDIO
    TITLE "9:cjc026_05431"
    INDEX 01 00:11:41
  TRACK 15 AUDIO
    TITLE "0:"
    INDEX 01 00:12:66
  TRACK 16 AUDIO
    TITLE "8:cjc026_05432"
    INDEX 01 00:13:29
  TRACK 17 AUDIO
    TITLE "0:"
    INDEX 01 00:15:00
  TRACK 18 AUDIO
    TITLE "9:cjc026_05433"
    INDEX 01 00:15:38
  TRACK 19 AUDIO
    TITLE "0:"
    INDEX 01 00:16:55
  TRACK 20 AUDIO
    TITLE "8:cjc026_05434"
    INDEX 01 00:17:15
  TRACK 21 AUDIO
    TITLE "0:"
    INDEX 01 00:18:37
  TRACK 22 AUDIO
    TITLE "9:cjc026_05435"
    INDEX 01 00:18:70
  TRACK 23 AUDIO
    TITLE "0:"
    INDEX 01 00:20:12
  TRACK 24 AUDIO
    TITLE "8:cjc026_05436"
    INDEX 01 00:20:47
  TRACK 25 AUDIO
    TITLE "0:"
    INDEX 01 00:22:15
  TRACK 26 AUDIO
    TITLE "9:cjc026_05437"
    INDEX 01 00:22:51
  TRACK 27 AUDIO
    TITLE "0:"
    INDEX 01 00:23:73
  TRACK 28 AUDIO
    TITLE "8:cjc026_05438"
    INDEX 01 00:24:36
  TRACK 29 AUDIO
    TITLE "0:"
    INDEX 01 00:26:10
  TRACK 30 AUDIO
    TITLE "9:cjc026_05439"
    INDEX 01 00:26:45
  TRACK 31 AUDIO
    TITLE "0:"
    INDEX 01 00:27:62
  TRACK 32 AUDIO
    TITLE "8:cjc026_05440"
    INDEX 01 00:28:24
  TRACK 33 AUDIO
    TITLE "0:"
    INDEX 01 00:29:55
  TRACK 34 AUDIO
    TITLE "9:cjc026_05441"
    INDEX 01 00:30:15
  TRACK 35 AUDIO
    TITLE "0:"
    INDEX 01 00:31:42
  TRACK 36 AUDIO
    TITLE "8:cjc026_05442"
    INDEX 01 00:32:03
  TRACK 37 AUDIO
    TITLE "0:"
    INDEX 01 00:33:38
  TRACK 38 AUDIO
    TITLE "9:cjc026_05443"
    INDEX 01 00:33:73
  TRACK 39 AUDIO
    TITLE "0:"
    INDEX 01 00:35:23
  TRACK 40 AUDIO
    TITLE "8:cjc026_05444"
    INDEX 01 00:35:58
  TRACK 41 AUDIO
    TITLE "0:"
    INDEX 01 00:36:70
  TRACK 42 AUDIO
    TITLE "9:cjc026_05445"
    INDEX 01 00:37:30
  TRACK 43 AUDIO
    TITLE "0:"
    INDEX 01 00:38:49
  TRACK 44 AUDIO
    TITLE "8:cjc026_05446"
    INDEX 01 00:39:09
  TRACK 45 AUDIO
    TITLE "0:"
    INDEX 01 00:40:34
  TRACK 46 AUDIO
    TITLE "9:cjc026_05447"
    INDEX 01 00:40:69
  TRACK 47 AUDIO
    TITLE "0:"
    INDEX 01 00:42:09
  TRACK 48 AUDIO
    TITLE "8:cjc026_05448"
    INDEX 01 00:42:46
  TRACK 49 AUDIO
    TITLE "0:"
    INDEX 01 00:43:69
  TRACK 50 AUDIO
    TITLE "9:cjc026_05449"
    INDEX 01 00:44:31
  TRACK 51 AUDIO
    TITLE "0:"
    INDEX 01 00:45:59
  TRACK 52 AUDIO
    TITLE "8:cjc026_05450"
    INDEX 01 00:46:22
  TRACK 53 AUDIO
    TITLE "0:"
    INDEX 01 00:48:12
  TRACK 54 AUDIO
    TITLE "9:cjc026_05451"
    INDEX 01 00:48:47
  TRACK 55 AUDIO
    TITLE "0:"
    INDEX 01 00:50:05
  TRACK 56 AUDIO
    TITLE "8:cjc026_05452"
    INDEX 01 00:50:40
  TRACK 57 AUDIO
    TITLE "0:"
    INDEX 01 00:52:23
  TRACK 58 AUDIO
    TITLE "9:cjc026_05453"
    INDEX 01 00:52:58
  TRACK 59 AUDIO
    TITLE "0:"
    INDEX 01 00:54:10
  TRACK 60 AUDIO
    TITLE "8:cjc026_05454"
    INDEX 01 00:54:48
  TRACK 61 AUDIO
    TITLE "0:"
    INDEX 01 00:56:36
